<svg xmlns="http://www.w3.org/2000/svg" width="25" height="25" viewBox="0 0 25 25">
    <g fill="none" fill-rule="evenodd">
        <g fill-rule="nonzero">
            <g>
                <g transform="translate(-442 -4834) translate(0 4750) translate(442 84)">
                    <circle cx="12" cy="12" r="9" fill="#dfdddc"/>
                    <path fill="#221E22" d="M12.411 0c6.855 0 12.411 5.557 12.411 12.411 0 6.855-5.556 12.411-12.41 12.411C5.556 24.822 0 19.266 0 12.412 0 5.556 5.557 0 12.411 0zm.935 4.815c-2.758 0-3.385 2.066-3.385 3.385v1.846H8.365v2.85h1.596v8.114h3.356v-8.113h2.214l.293-2.849h-2.507V8.37c0-.63.416-.777.712-.777h1.803V4.825z"/>
                </g>
            </g>
        </g>
    </g>
</svg>
