<svg xmlns="http://www.w3.org/2000/svg" width="24" height="24" viewBox="0 0 24 24">
    <g fill="none" fill-rule="evenodd">
        <g>
            <g>
                <g>
                    <g>
                        <path d="M0 0H24V24H0z" transform="translate(-462 -2768) translate(442 2763) translate(15) translate(5 5)"/>
                        <g fill="#221E22" fill-rule="nonzero">
                            <path d="M15.46 11.721v-1.337c0-1.67-1.492-3.024-3.333-3.024-1.84 0-3.333 1.354-3.333 3.024v1.337h-.8v3.544c0 1.5 1.2 2.726 2.667 2.726h2.933c1.467 0 2.667-1.227 2.667-2.726v-3.544h-.8zm-2.933 3.449v1.186h-.8V15.17c-.314-.154-.533-.48-.533-.859 0-.527.417-.954.933-.954s.933.427.933.954c0 .38-.218.705-.533.859zm1.067-3.449H10.66v-1.337c0-.605.671-1.116 1.466-1.116.795 0 1.467.511 1.467 1.116v1.337z" transform="translate(-462 -2768) translate(442 2763) translate(15) translate(5 5) translate(0 2.88)"/>
                            <path d="M19.107 6.885c.058-.334.093-.675.093-1.024C19.2 2.624 16.633 0 13.467 0 10.752 0 8.483 1.931 7.89 4.521c-.666-.277-1.393-.432-2.157-.432C2.567 4.089 0 6.713 0 9.949c0 3.191 2.496 5.781 5.6 5.855v.006h1.1c-.023-.178-.04-.36-.04-.545v-4.907h.8c.015-2.407 2.103-4.361 4.667-4.361 2.564 0 4.652 1.954 4.667 4.361h.8v4.907c0 .185-.017.367-.04.545H24v-3.134c0-2.944-2.126-5.375-4.893-5.791z" transform="translate(-462 -2768) translate(442 2763) translate(15) translate(5 5) translate(0 2.88)"/>
                        </g>
                    </g>
                </g>
            </g>
        </g>
    </g>
</svg>
