<?xml version="1.0" encoding="utf-8"?><svg xmlns="http://www.w3.org/2000/svg" xmlns:xlink="http://www.w3.org/1999/xlink"><symbol viewBox="0 0 32 32" id="check" xmlns="http://www.w3.org/2000/svg"><path d="M26.664 6.27a.829.829 0 00-1.177 0L13.088 18.611a.826.826 0 01-1.178 0l-5.433-5.532a.825.825 0 00-1.177 0l-2.401 2.158a.83.83 0 00-.246.583c0 .215.087.44.247.603l5.478 5.749c.324.328.855.861 1.178 1.186l2.355 2.374a.834.834 0 001.178 0L29.019 9.83a.846.846 0 000-1.188l-2.356-2.373z"/></symbol><symbol viewBox="0 0 45.437 45.437" id="empty" xmlns="http://www.w3.org/2000/svg"/><symbol viewBox="0 0 25 25" id="fb" xmlns="http://www.w3.org/2000/svg"><circle cx="12" cy="12" r="9"/><path d="M12.411 0c6.855 0 12.411 5.557 12.411 12.411 0 6.855-5.556 12.411-12.41 12.411C5.556 24.822 0 19.266 0 12.412 0 5.556 5.557 0 12.411 0zm.935 4.815c-2.758 0-3.385 2.066-3.385 3.385v1.846H8.365v2.85h1.596v8.114h3.356v-8.113h2.214l.293-2.849h-2.507V8.37c0-.63.416-.777.712-.777h1.803V4.825z"/></symbol><symbol viewBox="0 0 25 25" id="ld" xmlns="http://www.w3.org/2000/svg"><path d="M12.5 0C5.597 0 0 5.597 0 12.5S5.597 25 12.5 25 25 19.403 25 12.5 19.403 0 12.5 0zM8.868 18.896H5.823V9.738h3.045v9.158zM7.346 8.486h-.02c-1.022 0-1.683-.702-1.683-1.581 0-.899.681-1.583 1.723-1.583 1.041 0 1.682.684 1.702 1.583 0 .879-.66 1.582-1.722 1.582zm12.499 10.41H16.8v-4.9c0-1.23-.44-2.07-1.542-2.07-.841 0-1.342.566-1.562 1.113-.08.196-.1.469-.1.743v5.114h-3.045s.04-8.3 0-9.158h3.045v1.296c.404-.624 1.128-1.511 2.743-1.511 2.003 0 3.505 1.309 3.505 4.122v5.251z"/></symbol><symbol viewBox="0 0 24 24" id="methodology" xmlns="http://www.w3.org/2000/svg"><path d="M10.828 11.953h2.344v1.406h-2.344zM8.484 3.516h7.032v1.406H8.484z"/><path d="M21.89 0H2.11C.943 0 0 .944 0 2.11v12.656c0 1.165.944 2.109 2.11 2.109h19.78a2.11 2.11 0 002.11-2.11V2.11A2.11 2.11 0 0021.89 0zm-.75 14.063a.703.703 0 01-.703.703h-3.75a.704.704 0 01-.703-.704V11.25c0-.388.315-.703.704-.703h1.171V9.14h-5.156v1.406h1.172c.388 0 .703.315.703.703v2.813a.703.703 0 01-.703.703h-3.75a.704.704 0 01-.703-.704V11.25c0-.388.315-.703.703-.703h1.172V9.14H6.14v1.406h1.171c.389 0 .704.315.704.703v2.813a.704.704 0 01-.704.703h-3.75a.704.704 0 01-.703-.704V11.25c0-.388.315-.703.704-.703h1.171v-2.11c0-.388.315-.703.704-.703h5.859V6.328H7.78a.703.703 0 01-.703-.703V2.812c0-.388.315-.703.703-.703h8.438c.388 0 .703.315.703.704v2.812a.703.703 0 01-.703.703h-3.516v1.406h5.86c.388 0 .703.315.703.704v2.109h1.172c.388 0 .703.315.703.703v2.813z"/><path d="M4.266 11.953h2.343v1.406H4.266zm13.125 0h2.343v1.406h-2.343zm-4.688 7.949v-1.62h-1.406v1.62a2.11 2.11 0 102.813 1.988c0-.916-.588-1.698-1.407-1.988zM12 22.594a.704.704 0 11.002-1.408.704.704 0 01-.002 1.408z"/></symbol><symbol viewBox="0 0 24 24" id="quality" xmlns="http://www.w3.org/2000/svg"><g fill-rule="evenodd"><path d="M0 0h24v24H0z"/><path fill-rule="nonzero" d="M12.041 7.428c-2.497 0-4.53 2.051-4.53 4.572 0 2.522 2.033 4.573 4.53 4.573 2.498 0 4.53-2.051 4.53-4.573 0-2.521-2.032-4.572-4.53-4.572zm2.69 3.711l-3.245 3.276a.693.693 0 01-.987 0l-1.24-1.252c-.272-.275-.272-.72 0-.995s.714-.275.986 0l.747.754 2.752-2.778a.692.692 0 01.986 0 .707.707 0 010 .995z"/><path fill-rule="nonzero" d="M22.14 6.512l-.002-.019c-.01-.23-.017-.474-.021-.746-.02-1.323-1.061-2.418-2.372-2.492-2.733-.154-4.848-1.053-6.654-2.831l-.016-.015a1.51 1.51 0 00-2.067 0l-.016.015C9.186 2.202 7.072 3.1 4.338 3.256c-1.31.073-2.352 1.168-2.372 2.492-.004.27-.01.513-.021.745l-.001.044c-.053 2.813-.12 6.315 1.04 9.494.639 1.748 1.605 3.267 2.873 4.516 1.443 1.422 3.334 2.552 5.62 3.356a1.733 1.733 0 00.565.097 1.72 1.72 0 00.565-.097c2.283-.806 4.172-1.936 5.614-3.358 1.267-1.25 2.234-2.77 2.872-4.518 1.165-3.188 1.099-6.696 1.046-9.515zm-10.1 11.47c-3.266 0-5.924-2.683-5.924-5.982 0-3.298 2.658-5.98 5.924-5.98 3.267 0 5.924 2.682 5.924 5.98 0 3.299-2.657 5.982-5.924 5.982z"/></g></symbol><symbol viewBox="0 0 24 24" id="security" xmlns="http://www.w3.org/2000/svg"><g fill-rule="evenodd"><path d="M0 0h24v24H0z"/><g fill-rule="nonzero"><path d="M15.46 14.601v-1.337c0-1.67-1.492-3.024-3.333-3.024-1.84 0-3.333 1.354-3.333 3.024v1.337h-.8v3.544c0 1.5 1.2 2.726 2.667 2.726h2.933c1.467 0 2.667-1.227 2.667-2.726v-3.544h-.8zm-2.933 3.449v1.186h-.8V18.05a.956.956 0 01-.533-.859c0-.527.417-.954.933-.954s.933.427.933.954c0 .38-.218.705-.533.859zm1.067-3.449H10.66v-1.337c0-.605.671-1.116 1.466-1.116.795 0 1.467.511 1.467 1.116v1.337z"/><path d="M19.107 9.765c.058-.334.093-.675.093-1.024 0-3.237-2.567-5.861-5.733-5.861-2.715 0-4.984 1.931-5.577 4.521a5.6 5.6 0 00-2.157-.432C2.567 6.969 0 9.593 0 12.829c0 3.191 2.496 5.781 5.6 5.855v.006h1.1a4.249 4.249 0 01-.04-.545v-4.907h.8c.015-2.407 2.103-4.361 4.667-4.361 2.564 0 4.652 1.954 4.667 4.361h.8v4.907c0 .185-.017.367-.04.545H24v-3.134c0-2.944-2.126-5.375-4.893-5.791z"/></g></g></symbol><symbol viewBox="0 0 25 25" id="tw" xmlns="http://www.w3.org/2000/svg"><path d="M12.5 0C5.597 0 0 5.597 0 12.5S5.597 25 12.5 25 25 19.403 25 12.5 19.403 0 12.5 0zm5.707 9.746c.006.123.009.247.009.371 0 3.791-2.886 8.163-8.164 8.163a8.116 8.116 0 01-4.397-1.289 5.753 5.753 0 004.247-1.188 2.871 2.871 0 01-2.68-1.993 2.825 2.825 0 001.296-.049 2.87 2.87 0 01-2.302-2.812v-.037c.387.215.83.344 1.3.359a2.868 2.868 0 01-.888-3.831 8.146 8.146 0 005.914 2.998 2.87 2.87 0 014.889-2.616 5.784 5.784 0 001.822-.697 2.882 2.882 0 01-1.262 1.587 5.724 5.724 0 001.647-.452 5.823 5.823 0 01-1.43 1.486z"/></symbol><symbol viewBox="0 0 24 24" id="value" xmlns="http://www.w3.org/2000/svg"><g fill-rule="evenodd"><path d="M0 0h24v24H0z"/><path d="M12 20.013l3.254-10.124H8.746zm4.731-10.124l-4.105 12.772L23.862 9.889zm-9.462 0H.138l11.236 12.772zM24 8.483l-2.768-5.796-3.725 5.796zM3.946 1.92l3.835 5.965 3.835-5.965zm8.438 0l3.835 5.965 3.835-5.965zM9.069 8.483h5.862L12 3.923zM2.768 2.687L0 8.483h6.493z" fill-rule="nonzero"/></g></symbol></svg>