<svg xmlns="http://www.w3.org/2000/svg" width="24" height="24" viewBox="0 0 24 24">
    <g fill="none" fill-rule="evenodd">
        <g>
            <g>
                <g>
                    <path d="M0 0H24V24H0z" transform="translate(-560 -4478) translate(540 4473) translate(20 5)"/>
                    <path fill="#221E22" fill-rule="nonzero" d="M2.475 19.726c.148.085.285.085.411 0 1.098-.631 2.111-1.263 3.04-1.894.928-.632 1.72-1.327 2.374-2.085.654-.758 1.171-1.652 1.551-2.684.38-1.031.57-2.284.57-3.758 0-.673-.105-1.326-.317-1.958-.21-.631-.517-1.2-.918-1.705-.4-.505-.886-.905-1.456-1.2C7.16 4.147 6.495 4 5.736 4c-.971 0-1.837.316-2.596.947C2.38 5.58 2 6.38 2 7.347c0 .969.243 1.78.728 2.432.486.653 1.214 1.021 2.185 1.105.506.042.865.116 1.076.221.211.106.359.327.443.663.211.843.243 1.569.095 2.18-.148.61-.433 1.168-.855 1.673-.422.505-.928.99-1.52 1.453-.59.463-1.223.947-1.899 1.452-.169.127-.253.274-.253.442 0 .169.042.316.127.443.084.126.2.231.348.315zm11.579 0c.148.085.285.085.411 0 1.098-.631 2.11-1.263 3.04-1.894.928-.632 1.72-1.327 2.374-2.085.654-.758 1.171-1.652 1.551-2.684.38-1.031.57-2.284.57-3.758 0-.673-.106-1.326-.317-1.958-.21-.631-.517-1.2-.918-1.705-.4-.505-.886-.905-1.456-1.2C18.74 4.147 18.074 4 17.315 4c-.971 0-1.837.316-2.596.947-.76.632-1.14 1.432-1.14 2.4 0 .969.243 1.78.728 2.432.486.653 1.214 1.021 2.184 1.105.507.042.866.116 1.077.221.21.106.359.327.443.663.211.843.243 1.569.095 2.18-.148.61-.433 1.168-.855 1.673-.422.505-.928.99-1.52 1.453-.59.463-1.223.947-1.899 1.452-.169.127-.253.274-.253.442 0 .169.042.316.127.443.084.126.2.231.348.315z" transform="translate(-560 -4478) translate(540 4473) translate(20 5)"/>
                </g>
            </g>
        </g>
    </g>
</svg>
