<svg xmlns="http://www.w3.org/2000/svg" viewBox="0 0 15 15" width="15" height="15">
	<style>
		tspan { white-space:pre }
		.shp0 { fill: #fdc353 } 
	</style>
	<path id="Layer" fill-rule="evenodd" class="shp0" d="M13.53 2.01C13.49 1.96 13.44 1.93 13.38 1.9C13.32 1.88 13.26 1.87 13.2 1.87C13.14 1.87 13.08 1.88 13.02 1.9C12.96 1.93 12.91 1.96 12.87 2.01L5.88 8.96C5.84 9.01 5.79 9.04 5.73 9.07C5.67 9.09 5.61 9.1 5.55 9.1C5.49 9.1 5.43 9.09 5.37 9.07C5.31 9.04 5.26 9.01 5.22 8.96L2.16 5.84C2.11 5.8 2.06 5.77 2 5.74C1.95 5.72 1.89 5.7 1.82 5.7C1.76 5.7 1.7 5.72 1.64 5.74C1.59 5.77 1.54 5.8 1.49 5.84L0.14 7.06C0.09 7.1 0.06 7.16 0.04 7.21C0.01 7.27 0 7.33 0 7.4C0 7.46 0.01 7.52 0.04 7.58C0.06 7.63 0.1 7.69 0.14 7.73L3.23 10.97C3.41 11.15 3.71 11.45 3.89 11.64L5.22 12.98C5.26 13.02 5.31 13.05 5.37 13.08C5.43 13.1 5.49 13.11 5.55 13.11C5.61 13.11 5.67 13.1 5.73 13.08C5.79 13.05 5.84 13.02 5.88 12.98L14.86 4.01C14.9 3.97 14.94 3.92 14.96 3.86C14.99 3.8 15 3.74 15 3.68C15 3.62 14.99 3.56 14.96 3.5C14.94 3.44 14.9 3.39 14.86 3.34L13.53 2.01L13.53 2.01Z" />
</svg>