<svg width="281" height="223" xmlns="http://www.w3.org/2000/svg"><g fill="#FFF" fill-rule="evenodd"><path d="M148 117.235l34.089 44.152c3.881 3.802 20.276 24.007 49.185 60.613H281l-98.911-108.5c17.731-10.172 32.785-22.102 45.16-35.788 18.561-20.53 15.48-38.787 18.561-45.474 3.082-6.686 9.288-15.204 15-18.66 5.713-3.455 10.985-5.912 15.818-6.021-6.13-2.481-14.601-3.157-25.413-2.026-16.219 1.695-26.76 7.1-30.568 10.396-3.81 3.296-29.821 24.839-46.064 70.778-6.485 18.341-24.386 24.497-26.583 26.581v3.95zM55.467 221.108c-13.862-6.128-16.712-6.804-22.017-10.604-5.305-3.8-10.72-8.05-14.866-12.573-4.146-4.522-7.216-7.111-10.645-14.272-3.429-7.162-4.06-11.493-5.238-12.027H.376V223h7.563c.506-3.273 3.127-2.939 6.894-2.939 3.767 0 11.712 1.047 18.617 1.047 6.905 0 16.016.296 22.017.296M27.537 6.137c5.582-3.08 10.147-4.49 13.695-4.23-1.592.688-3.154 1.735-4.685 3.143-2.296 2.11-6.257 7.774-9.64 16.094-3.838 9.435-3.838 15.836-4.1 18.197-.605 5.47.925 16.238 3.604 20.62 2.679 4.382 5.957 7.587 10.136 10.58 4.18 2.993 7.576 5.245 12.613 7.49 5.036 2.244 11.08 5.592 15.795 7.73 8.144 3.847 19.286 8.65 27.323 12.926 8.037 4.275 18.487 9.788 24.916 15.453 6.43 5.665 10.663 10.86 14.628 18.661 3.964 7.803 4.777 19.826 3.805 32.207-.971 12.382-5.278 19.444-9.886 27.033-4.607 7.588-10.639 14.23-18.033 19.04l-5.628 3.899c1.583-3.9 3.262-4.806 7.813-13.94 4.55-9.134 5.46-15.926 5.46-24.844 0-8.917-7.32-18.96-14.232-23.452-3.213-2.088-9.812-5.087-16.559-8.01l-1.227-.53-1.227-.528c-6.938-2.978-13.616-5.749-16.49-7.233-2.357-1.218-5.04-2.633-7.754-4.059l-1.482-.777c-3.703-1.94-7.363-3.835-10.234-5.21-6.845-3.103-23.79-16.561-29.363-21.371-5.572-4.81-11.759-15.805-14.084-25.145C.376 70.541-.599 63.264.376 53.12c.975-10.145 3.142-16.944 7.321-23.892 4.017-6.677 11.468-18.469 19.84-23.09zM116.77 0v51.368h-3.664c-.314-3.244-1.614-7.253-3.9-12.027-3.429-7.16-6.498-9.75-10.645-14.272-4.146-4.522-9.56-8.773-14.865-12.573a38.224 38.224 0 00-2.763-1.823l-.285-.168a30.87 30.87 0 00-.285-.163l-.286-.16a36.269 36.269 0 00-1.173-.618l-.305-.154c-3.038-1.508-7.112-3.14-16.804-8.052v-.295c6.046.697 8.748.686 15.278.844 6.529.158 21.472 1.032 25.24 1.032 3.766 0 6.388.334 6.893-2.939h7.564z"/></g></svg>