<svg xmlns="http://www.w3.org/2000/svg" width="178" height="60" viewBox="0 0 178 60">
    <g fill="none" fill-rule="evenodd">
        <g>
            <g>
                <g>
                    <g>
                        <path fill="#221E22" d="M20.702 16.36l4.745 6.156c.54.53 2.822 3.346 6.846 8.45h6.922L25.447 15.84c2.468-1.418 4.563-3.081 6.286-4.99 2.583-2.861 2.154-5.407 2.583-6.339.43-.932 1.293-2.12 2.088-2.601.796-.482 1.53-.824 2.202-.84-.853-.346-2.032-.44-3.537-.282-2.258.236-3.725.99-4.255 1.45-.53.459-4.151 3.462-6.412 9.866-.903 2.557-3.394 3.415-3.7 3.706v.55z" transform="translate(-150 -10) translate(150 10) translate(10.345 14.483)"/>
                        <path fill="#FFC554" d="M7.71 30.81c-1.928-.854-2.324-.948-3.061-1.477-.737-.53-1.49-1.122-2.066-1.752-.576-.63-1.003-.991-1.48-1.99-.476-.997-.564-1.6-.728-1.675H.052V31.074h1.051c.07-.456.435-.41.959-.41.523 0 1.627.146 2.587.146.96 0 2.226.041 3.06.041M5.58.261l.152.005c-.222.096-.439.242-.651.438-.32.294-.87 1.083-1.34 2.242-.534 1.315-.534 2.207-.57 2.536-.084.762.128 2.263.5 2.873.373.61.829 1.057 1.41 1.474.58.417 1.052.731 1.752 1.044.7.313 1.54.78 2.196 1.077 1.132.536 2.68 1.206 3.797 1.801 1.117.596 2.57 1.364 3.463 2.154.894.79 1.482 1.513 2.033 2.6.551 1.087.664 2.763.53 4.488-.136 1.725-.734 2.71-1.375 3.767-.64 1.057-1.479 1.983-2.506 2.653l-.782.543c.22-.543.453-.67 1.085-1.942.633-1.273.76-2.22.76-3.462 0-1.243-1.018-2.642-1.979-3.268-.96-.626-4.1-1.84-4.934-2.271-.834-.432-1.961-1.043-2.706-1.4-.951-.433-3.307-2.308-4.081-2.978-.775-.67-1.634-2.202-1.958-3.504-.323-1.302-.458-2.316-.323-3.73.136-1.413.437-2.36 1.018-3.328.558-.93 1.594-2.574 2.757-3.218.776-.429 1.41-.626 1.904-.59zM16.228 0v7.158h-.51c-.043-.452-.223-1.01-.541-1.676-.477-.998-.903-1.359-1.48-1.989-.576-.63-1.328-1.222-2.066-1.752-.737-.53-.92-.473-3.044-1.552V.15c.84.096 1.216.095 2.124.117.907.022 2.984.144 3.508.144H14.555c.34-.006.569-.06.623-.41h1.051z" transform="translate(-150 -10) translate(150 10) translate(10.345 14.483)"/>
                    </g>
                    <path fill="#221E22" fill-rule="nonzero" d="M1.38 15.094V58.62h48.758V60H0V15.094h1.38zM60 0v46.974h-1.38V1.38H10.809V0H60z" transform="translate(-150 -10) translate(150 10)"/>
                </g>
                <path fill="#221E22" fill-rule="nonzero" d="M73.859 27.268l1.13-2.768h4.283l1.083 2.768h2.166L77.317 15h-.113L72 27.268h1.859zm4.783-4.386h-2.99l1.52-3.723 1.47 3.723zm10.489 4.515c.722 0 1.387-.113 1.996-.34.608-.226 1.085-.463 1.43-.712l-.792-1.683c-.313.27-.698.491-1.156.664-.458.172-.972.259-1.543.259-.797 0-1.5-.181-2.109-.542-.609-.362-1.077-.864-1.406-1.506-.329-.642-.493-1.367-.493-2.176 0-.767.178-1.47.533-2.113.356-.642.833-1.149 1.43-1.52.599-.373 1.242-.56 1.932-.56.905 0 1.794.308 2.666.923l.744-1.764c-.453-.28-.972-.512-1.56-.696-.587-.183-1.225-.275-1.915-.275-1.12 0-2.12.262-2.998.785-.878.523-1.562 1.249-2.052 2.177-.49.928-.735 1.98-.735 3.156 0 1.079.245 2.069.735 2.97.49.9 1.19 1.618 2.1 2.152.911.534 1.975.801 3.193.801zm11.232 0c.721 0 1.387-.113 1.995-.34.61-.226 1.086-.463 1.43-.712l-.791-1.683c-.313.27-.698.491-1.156.664-.458.172-.972.259-1.543.259-.797 0-1.5-.181-2.11-.542-.608-.362-1.076-.864-1.405-1.506-.329-.642-.493-1.367-.493-2.176 0-.767.178-1.47.533-2.113.356-.642.833-1.149 1.43-1.52.599-.373 1.242-.56 1.932-.56.905 0 1.794.308 2.666.923l.744-1.764c-.453-.28-.973-.512-1.56-.696-.587-.183-1.225-.275-1.915-.275-1.12 0-2.12.262-2.998.785-.878.523-1.562 1.249-2.052 2.177-.49.928-.735 1.98-.735 3.156 0 1.079.245 2.069.735 2.97.49.9 1.19 1.618 2.1 2.152.911.534 1.975.801 3.193.801zm13.963-.13v-1.812h-6.142v-3.204h5.269v-1.813h-5.269v-3.14h5.915v-1.812h-7.805v11.782h8.032zm10.294 0v-1.812h-5.802v-9.97h-1.89v11.783h7.692zm10.521 0v-1.812H129v-3.204h5.268v-1.813H129v-3.14h5.915v-1.812h-7.806v11.782h8.032zm4.493 0v-4.094h1.89l2.651 4.095h2.182l-2.86-4.548c.656-.334 1.139-.812 1.446-1.432.307-.62.46-1.292.46-2.015 0-1.187-.396-2.115-1.188-2.784-.791-.669-1.845-1.003-3.159-1.003h-3.313v11.782h1.89zm1.68-5.906h-1.68v-4.063h1.745c.507 0 .916.11 1.228.332.313.221.534.486.663.793.13.308.194.612.194.914 0 .518-.17.985-.51 1.4-.339.416-.885.624-1.64.624zm7.887 5.907l1.131-2.768h4.283l1.083 2.768h2.165L152.66 15h-.114l-5.203 12.268h1.858zm4.784-4.386h-2.99l1.52-3.723 1.47 3.723zm8.937 4.386v-9.97h3.038v-1.812h-7.87v1.812h2.957v9.97h1.875zm13.462 0v-1.813h-6.141v-3.204h5.268v-1.813h-5.268v-3.14h5.915v-1.812h-7.806v11.782h8.032zM75.119 46.45V34.667h-1.89V46.45h1.89zm13.624.42V34.668h-1.875l.032 7.93-8.452-8.334h-.097V46.45h1.907l-.048-7.817 8.484 8.238h.049zm13.64 0V34.668h-1.875l.032 7.93-8.452-8.334h-.097V46.45h1.907l-.048-7.817 8.484 8.238h.049zm8.533-.29c1.077 0 2.08-.27 3.006-.81.926-.54 1.662-1.268 2.206-2.185s.816-1.92.816-3.01c0-1.068-.275-2.067-.824-2.994-.55-.928-1.285-1.667-2.206-2.218-.922-.55-1.92-.825-2.998-.825-1.088 0-2.093.275-3.014.825-.922.55-1.651 1.287-2.19 2.21-.539.922-.808 1.923-.808 3.002 0 1.1.27 2.11.808 3.026.539.917 1.268 1.643 2.19 2.177.92.534 1.926.801 3.014.801zm.048-1.813c-.754 0-1.446-.19-2.077-.567-.63-.378-1.128-.885-1.494-1.521-.367-.637-.55-1.338-.55-2.104s.18-1.473.542-2.12c.36-.648.85-1.16 1.47-1.538.62-.378 1.307-.566 2.06-.566.744 0 1.428.188 2.053.566.625.378 1.12.89 1.487 1.538.366.647.55 1.354.55 2.12s-.181 1.47-.542 2.112c-.36.642-.848 1.149-1.463 1.521-.614.372-1.292.559-2.036.559zM122.94 47l5.269-12.333h-2.214l-2.974 7.737-3.103-7.737h-2.246L122.939 47zm6.578-.55l1.131-2.768h4.283l1.083 2.768h2.165l-5.204-12.268h-.113l-5.204 12.268h1.859zm4.784-4.386h-2.99l1.519-3.723 1.47 3.723zm8.937 4.386v-9.97h3.038v-1.813h-7.87v1.813h2.957v9.97h1.875zm7.32 0V34.667h-1.89V46.45h1.89zm8.517.13c1.078 0 2.08-.27 3.006-.81.927-.54 1.662-1.268 2.206-2.185s.817-1.92.817-3.01c0-1.068-.275-2.067-.825-2.994-.55-.928-1.284-1.667-2.206-2.218-.92-.55-1.92-.825-2.998-.825-1.088 0-2.092.275-3.014.825-.92.55-1.65 1.287-2.19 2.21-.538.922-.807 1.923-.807 3.002 0 1.1.269 2.11.808 3.026.538.917 1.268 1.643 2.19 2.177.92.534 1.925.801 3.013.801zm.049-1.813c-.754 0-1.446-.19-2.077-.567-.63-.378-1.128-.885-1.495-1.521-.366-.637-.55-1.338-.55-2.104s.181-1.473.542-2.12c.361-.648.851-1.16 1.47-1.538.62-.378 1.307-.566 2.061-.566.744 0 1.428.188 2.053.566.625.378 1.12.89 1.487 1.538.366.647.55 1.354.55 2.12s-.181 1.47-.542 2.112c-.361.642-.849 1.149-1.463 1.521-.614.372-1.293.559-2.036.559zM178 46.87V34.667h-1.875l.033 7.93-8.453-8.334h-.097V46.45h1.907l-.048-7.817 8.485 8.238H178z" transform="translate(-150 -10) translate(150 10)"/>
            </g>
        </g>
    </g>
</svg>
