<svg xmlns="http://www.w3.org/2000/svg" width="24" height="24" viewBox="0 0 24 24">
    <g fill="none" fill-rule="evenodd">
        <g fill="#221E22" fill-rule="nonzero">
            <g>
                <g>
                    <g>
                        <path d="M10.828 11.953L13.172 11.953 13.172 13.359 10.828 13.359zM8.484 3.516L15.516 3.516 15.516 4.922 8.484 4.922z" transform="translate(-755 -2768) translate(735 2763) translate(15) translate(5 5)"/>
                        <path d="M21.89 0H2.11C.943 0 0 .944 0 2.11v12.656c0 1.165.944 2.109 2.11 2.109h19.78c1.166 0 2.11-.944 2.11-2.11V2.11C24 .944 23.056 0 21.89 0zm-.75 14.063c0 .388-.314.703-.703.703h-3.75c-.388 0-.703-.315-.703-.704V11.25c0-.388.315-.703.704-.703h1.171V9.14h-5.156v1.406h1.172c.388 0 .703.315.703.703v2.813c0 .388-.315.703-.703.703h-3.75c-.388 0-.703-.315-.703-.704V11.25c0-.388.315-.703.703-.703h1.172V9.14H6.14v1.406h1.171c.389 0 .704.315.704.703v2.813c0 .388-.315.703-.704.703h-3.75c-.388 0-.703-.315-.703-.704V11.25c0-.388.315-.703.704-.703h1.171v-2.11c0-.388.315-.703.704-.703h5.859V6.328H7.78c-.388 0-.703-.315-.703-.703V2.812c0-.388.315-.703.703-.703h8.438c.388 0 .703.315.703.704v2.812c0 .388-.315.703-.703.703h-3.516v1.406h5.86c.388 0 .703.315.703.704v2.109h1.172c.388 0 .703.315.703.703v2.813z" transform="translate(-755 -2768) translate(735 2763) translate(15) translate(5 5)"/>
                        <path d="M4.266 11.953L6.609 11.953 6.609 13.359 4.266 13.359zM17.391 11.953L19.734 11.953 19.734 13.359 17.391 13.359zM12.703 19.902v-1.62h-1.406v1.62c-.819.29-1.406 1.072-1.406 1.989C9.89 23.054 10.837 24 12 24s2.11-.946 2.11-2.11c0-.916-.588-1.698-1.407-1.988zM12 22.594c-.388 0-.703-.316-.703-.703 0-.388.315-.703.703-.703.388 0 .703.315.703.703 0 .387-.315.703-.703.703z" transform="translate(-755 -2768) translate(735 2763) translate(15) translate(5 5)"/>
                    </g>
                </g>
            </g>
        </g>
    </g>
</svg>
