<svg xmlns="http://www.w3.org/2000/svg" width="24" height="24" viewBox="0 0 24 24">
    <g fill="none" fill-rule="evenodd">
        <g>
            <g>
                <g>
                    <g>
                        <path d="M0 0H24V24H0z" transform="translate(-1047 -2768) translate(1027 2763) translate(15) translate(5 5)"/>
                        <path fill="#221E22" fill-rule="nonzero" d="M12.041 7.428c-2.497 0-4.53 2.051-4.53 4.572 0 2.522 2.033 4.573 4.53 4.573 2.498 0 4.53-2.051 4.53-4.573 0-2.521-2.032-4.572-4.53-4.572zm2.69 3.711l-3.245 3.276c-.137.138-.315.207-.494.207-.178 0-.357-.07-.493-.207l-1.24-1.252c-.272-.275-.272-.72 0-.995s.714-.275.986 0l.747.754 2.752-2.778c.272-.275.714-.275.986 0 .273.274.273.72 0 .995z" transform="translate(-1047 -2768) translate(1027 2763) translate(15) translate(5 5)"/>
                        <path fill="#221E22" fill-rule="nonzero" d="M22.14 6.512l-.002-.019c-.01-.23-.017-.474-.021-.746-.02-1.323-1.061-2.418-2.372-2.492-2.733-.154-4.848-1.053-6.654-2.831l-.016-.015c-.589-.545-1.478-.545-2.067 0l-.016.015C9.186 2.202 7.072 3.1 4.338 3.256c-1.31.073-2.352 1.168-2.372 2.492-.004.27-.01.513-.021.745l-.001.044c-.053 2.813-.12 6.315 1.04 9.494.639 1.748 1.605 3.267 2.873 4.516 1.443 1.422 3.334 2.552 5.62 3.356.074.026.151.048.23.064.111.022.223.033.335.033.111 0 .223-.011.334-.033.079-.016.157-.038.231-.064 2.283-.806 4.172-1.936 5.614-3.358 1.267-1.25 2.234-2.77 2.872-4.518 1.165-3.188 1.099-6.696 1.046-9.515zM12.04 17.982c-3.266 0-5.924-2.683-5.924-5.982 0-3.298 2.658-5.98 5.924-5.98 3.267 0 5.924 2.682 5.924 5.98 0 3.299-2.657 5.982-5.924 5.982z" transform="translate(-1047 -2768) translate(1027 2763) translate(15) translate(5 5)"/>
                    </g>
                </g>
            </g>
        </g>
    </g>
</svg>
