<svg xmlns="http://www.w3.org/2000/svg" width="50" height="50" viewBox="0 0 50 50">
    <g fill="none" fill-rule="evenodd">
        <g fill="#221E22" fill-rule="nonzero">
            <g>
                <g>
                    <path d="M36.051 17.067c.763.763.763 2 0 2.763L22.948 32.933c-.762.762-1.999.762-2.762 0l-6.237-6.238c-.763-.763-.763-2 0-2.762.762-.763 2-.763 2.762 0l4.856 4.857L33.29 17.067c.763-.762 2-.762 2.762 0zM50 25c0 13.819-11.183 25-25 25C11.181 50 0 38.817 0 25 0 11.181 11.183 0 25 0c13.819 0 25 11.183 25 25zm-3.906 0c0-11.66-9.436-21.094-21.094-21.094C13.34 3.906 3.906 13.342 3.906 25c0 11.66 9.436 21.094 21.094 21.094 11.66 0 21.094-9.436 21.094-21.094z" transform="translate(-695 -348) translate(540 308) translate(155 40)"/>
                </g>
            </g>
        </g>
    </g>
</svg>
