<svg xmlns="http://www.w3.org/2000/svg" width="25" height="25" viewBox="0 0 25 25">
    <g fill="none" fill-rule="evenodd">
        <g fill="#221E22" fill-rule="nonzero">
            <g>
                <g>
                    <path d="M12.5 0C5.597 0 0 5.597 0 12.5S5.597 25 12.5 25 25 19.403 25 12.5 19.403 0 12.5 0zm5.707 9.746c.006.123.009.247.009.371 0 3.791-2.886 8.163-8.164 8.163-1.62 0-3.128-.475-4.397-1.289.224.027.453.04.684.04 1.344 0 2.581-.458 3.563-1.228-1.256-.023-2.315-.853-2.68-1.993.175.034.355.052.54.052.261 0 .515-.035.756-.101-1.313-.263-2.302-1.423-2.302-2.812v-.037c.387.215.83.344 1.3.359-.77-.514-1.277-1.393-1.277-2.388 0-.526.142-1.019.389-1.443 1.415 1.736 3.529 2.878 5.914 2.998-.05-.21-.075-.429-.075-.654 0-1.584 1.285-2.869 2.87-2.869.825 0 1.57.349 2.094.907.653-.13 1.267-.368 1.822-.697-.215.67-.67 1.232-1.262 1.587.58-.07 1.133-.223 1.647-.452-.384.576-.87 1.081-1.43 1.486z" transform="translate(-487 -4846) translate(0 4762) translate(487 84)"/>
                </g>
            </g>
        </g>
    </g>
</svg>
